<svg xmlns="http://www.w3.org/2000/svg" width="16" height="16" viewBox="0 0 16 16" fill="none">
  <path d="M 7.25 11.25 C 7.25 11.664 7.586 12 8 12 C 8.414 12 8.75 11.664 8.75 11.25 L 8.75 2.636 L 11.705 5.765 C 11.989 6.066 12.464 6.08 12.765 5.795 C 13.066 5.511 13.08 5.036 12.795 4.735 L 8.545 0.235 C 8.404 0.085 8.206 0 8 0 C 7.794 0 7.596 0.085 7.455 0.235 L 3.205 4.735 C 2.92 5.036 2.934 5.511 3.235 5.795 C 3.536 6.08 4.011 6.066 4.295 5.765 L 7.25 2.636 L 7.25 11.25 Z" fill="currentColor" fill-rule="nonzero"></path>
  <path d="M 1.5 10.75 C 1.5 10.336 1.164 10 0.75 10 C 0.336 10 0 10.336 0 10.75 L 0 13.25 C 0 14.769 1.231 16 2.75 16 L 13.25 16 C 14.769 16 16 14.769 16 13.25 L 16 10.75 C 16 10.336 15.664 10 15.25 10 C 14.836 10 14.5 10.336 14.5 10.75 L 14.5 13.25 C 14.5 13.94 13.94 14.5 13.25 14.5 L 2.75 14.5 C 2.06 14.5 1.5 13.94 1.5 13.25 L 1.5 10.75 Z" fill="currentColor" fill-rule="nonzero"></path>
</svg>