<svg xmlns="http://www.w3.org/2000/svg" width="19.500" height="17.636" viewBox="0 0 19.500 17.636" fill="none">
  <path d="M 9 1.533 C 7.485 0.563 5.682 0 3.75 0 C 2.612 0 1.518 0.195 0.5 0.555 C 0.2 0.661 0 0.944 0 1.262 L 0 15.512 C 0 15.756 0.118 15.984 0.317 16.124 C 0.516 16.265 0.77 16.3 1 16.219 C 1.859 15.916 2.784 15.75 3.75 15.75 C 5.745 15.75 7.573 16.457 9 17.636 L 9 1.533 Z" fill="currentColor" fill-rule="nonzero"></path>
  <path d="M 10.5 17.636 C 11.927 16.457 13.755 15.75 15.75 15.75 C 16.716 15.75 17.641 15.916 18.5 16.219 C 18.73 16.3 18.984 16.265 19.183 16.124 C 19.382 15.984 19.5 15.756 19.5 15.512 L 19.5 1.262 C 19.5 0.944 19.3 0.661 19 0.555 C 17.982 0.195 16.888 0 15.75 0 C 13.818 0 12.015 0.563 10.5 1.533 L 10.5 17.636 Z" fill="currentColor" fill-rule="nonzero"></path>
</svg>