<svg xmlns="http://www.w3.org/2000/svg" width="16" height="18" viewBox="0 0 16 18" fill="none">
  <path d="M 15.94 6.06 C 15.5 2.73 12.57 0 9 0 C 5.47 0 2.57 2.61 2.08 6 L 0.15 9.48 C -0.26 10.14 0.22 11 1 11 L 2 11 L 2 13 C 2 14.1 2.9 15 4 15 L 5 15 L 5 18 L 12 18 L 12 13.32 C 14.62 12.07 16.35 9.24 15.94 6.06 Z M 10.89 11.63 L 10 12.05 L 10 16 L 7 16 L 7 13 L 4 13 L 4 9 L 2.7 9 L 4.03 6.67 C 4.21 4.06 6.35 2 9 2 C 11.76 2 14 4.24 14 7 C 14 9.09 12.71 10.88 10.89 11.63 Z" fill="currentColor" fill-rule="nonzero"></path>
  <path d="M 8.5 9.54 C 8.09 9.54 7.76 9.85 7.76 10.27 C 7.76 10.68 8.09 11.01 8.5 11.01 C 8.92 11.01 9.23 10.68 9.23 10.27 C 9.23 9.85 8.92 9.54 8.5 9.54 Z" fill="currentColor" fill-rule="nonzero"></path>
  <path d="M 8.5 4 C 7.47 4 6.76 4.67 6.5 5.45 L 7.46 5.85 C 7.59 5.46 7.89 4.99 8.51 4.99 C 9.46 4.99 9.64 5.88 9.31 6.35 C 8.99 6.8 8.45 7.1 8.17 7.61 C 7.94 8.01 7.99 8.48 7.99 8.77 L 9.05 8.77 C 9.05 8.22 9.09 8.12 9.18 7.95 C 9.41 7.53 9.83 7.33 10.27 6.68 C 10.67 6.09 10.52 5.3 10.26 4.88 C 9.95 4.39 9.36 4 8.5 4 Z" fill="currentColor" fill-rule="nonzero"></path>
</svg>