<svg xmlns="http://www.w3.org/2000/svg" width="15" height="13.500" viewBox="0 0 15 13.500" fill="none">
  <path d="M 0.53 6.97 C 0.237 6.677 -0.237 6.677 -0.53 6.97 C -0.823 7.263 -0.823 7.737 -0.53 8.03 L 0 7.5 L 0.53 6.97 Z M 6 13.5 L 5.47 14.03 C 5.629 14.189 5.85 14.268 6.074 14.246 C 6.298 14.224 6.499 14.103 6.624 13.916 L 6 13.5 Z M 15.624 0.416 C 15.854 0.071 15.761 -0.394 15.416 -0.624 C 15.071 -0.854 14.606 -0.761 14.376 -0.416 L 15 0 L 15.624 0.416 Z M 0 7.5 L -0.53 8.03 L 5.47 14.03 L 6 13.5 L 6.53 12.97 L 0.53 6.97 L 0 7.5 Z M 6 13.5 L 6.624 13.916 L 15.624 0.416 L 15 0 L 14.376 -0.416 L 5.376 13.084 L 6 13.5 Z" fill="currentColor" fill-rule="nonzero"></path>
</svg>