<svg xmlns="http://www.w3.org/2000/svg" width="18.313" height="19.500" viewBox="0 0 18.313 19.500" fill="none">
  <path d="M 8.234 0 C 7.318 0 6.535 0.663 6.385 1.567 L 6.206 2.639 C 6.186 2.76 6.092 2.9 5.909 2.987 C 5.565 3.153 5.236 3.344 4.924 3.558 C 4.757 3.672 4.589 3.683 4.474 3.64 L 3.455 3.258 C 2.597 2.937 1.632 3.283 1.173 4.077 L 0.251 5.674 C -0.207 6.467 -0.024 7.476 0.683 8.059 L 1.524 8.751 C 1.619 8.829 1.693 8.98 1.678 9.181 C 1.663 9.369 1.656 9.559 1.656 9.75 C 1.656 9.941 1.663 10.131 1.678 10.319 C 1.693 10.52 1.619 10.672 1.524 10.75 L 0.683 11.442 C -0.024 12.024 -0.207 13.033 0.251 13.827 L 1.173 15.424 C 1.632 16.217 2.597 16.563 3.455 16.242 L 4.474 15.86 C 4.589 15.817 4.757 15.829 4.924 15.943 C 5.236 16.156 5.566 16.347 5.909 16.513 C 6.092 16.6 6.186 16.74 6.206 16.861 L 6.385 17.933 C 6.535 18.837 7.318 19.5 8.234 19.5 L 10.078 19.5 C 10.995 19.5 11.777 18.837 11.928 17.933 L 12.106 16.861 C 12.127 16.74 12.221 16.6 12.403 16.513 C 12.747 16.347 13.076 16.156 13.389 15.942 C 13.555 15.828 13.724 15.817 13.838 15.86 L 14.858 16.242 C 15.716 16.563 16.681 16.217 17.139 15.423 L 18.061 13.826 C 18.519 13.033 18.337 12.024 17.629 11.441 L 16.789 10.749 C 16.694 10.671 16.62 10.52 16.635 10.319 C 16.649 10.131 16.656 9.941 16.656 9.75 C 16.656 9.559 16.649 9.369 16.635 9.181 C 16.62 8.98 16.694 8.828 16.789 8.75 L 17.629 8.058 C 18.337 7.476 18.519 6.467 18.061 5.673 L 17.139 4.076 C 16.681 3.283 15.716 2.937 14.858 3.258 L 13.838 3.64 C 13.723 3.683 13.555 3.671 13.389 3.557 C 13.076 3.344 12.747 3.153 12.403 2.987 C 12.221 2.9 12.127 2.76 12.106 2.639 L 11.928 1.567 C 11.777 0.663 10.995 0 10.078 0 L 8.234 0 Z M 9.156 13.5 C 11.227 13.5 12.906 11.821 12.906 9.75 C 12.906 7.679 11.227 6 9.156 6 C 7.085 6 5.406 7.679 5.406 9.75 C 5.406 11.821 7.085 13.5 9.156 13.5 Z" fill="currentColor" fill-rule="evenodd"></path>
</svg>