<svg xmlns="http://www.w3.org/2000/svg" width="16.500" height="21" viewBox="0 0 16.500 21" fill="none">
  <path d="M 1.875 0 C 0.839 0 0 0.839 0 1.875 L 0 19.125 C 0 20.161 0.839 21 1.875 21 L 14.625 21 C 15.661 21 16.5 20.161 16.5 19.125 L 16.5 11.25 C 16.5 9.179 14.821 7.5 12.75 7.5 L 10.875 7.5 C 9.839 7.5 9 6.661 9 5.625 L 9 3.75 C 9 1.679 7.321 0 5.25 0 L 1.875 0 Z M 3.75 13.5 C 3.75 13.086 4.086 12.75 4.5 12.75 L 12 12.75 C 12.414 12.75 12.75 13.086 12.75 13.5 C 12.75 13.914 12.414 14.25 12 14.25 L 4.5 14.25 C 4.086 14.25 3.75 13.914 3.75 13.5 Z M 4.5 15.75 C 4.086 15.75 3.75 16.086 3.75 16.5 C 3.75 16.914 4.086 17.25 4.5 17.25 L 8.25 17.25 C 8.664 17.25 9 16.914 9 16.5 C 9 16.086 8.664 15.75 8.25 15.75 L 4.5 15.75 Z" fill="currentColor" fill-rule="evenodd"></path>
  <path d="M 9.221 0.316 C 10.018 1.236 10.5 2.437 10.5 3.75 L 10.5 5.625 C 10.5 5.832 10.668 6 10.875 6 L 12.75 6 C 14.063 6 15.264 6.482 16.184 7.279 C 15.296 3.88 12.62 1.204 9.221 0.316 Z" fill="currentColor" fill-rule="nonzero"></path>
</svg>