<svg xmlns="http://www.w3.org/2000/svg" width="12" height="12" viewBox="0 0 12 12" fill="none">
  <path d="M 0 1.5 C 0 0.672 0.672 0 1.5 0 L 4.379 0 C 4.777 0 5.158 0.158 5.439 0.439 L 6.561 1.561 C 6.842 1.842 7.223 2 7.621 2 L 10.5 2 C 11.328 2 12 2.672 12 3.5 L 12 4.901 C 11.559 4.646 11.046 4.5 10.5 4.5 L 1.5 4.5 C 0.954 4.5 0.441 4.646 0 4.901 L 0 1.5 Z" fill="currentColor" fill-rule="nonzero"></path>
  <path d="M 0 7.5 L 0 10.5 C 0 11.328 0.672 12 1.5 12 L 10.5 12 C 11.328 12 12 11.328 12 10.5 L 12 7.5 C 12 6.672 11.328 6 10.5 6 L 1.5 6 C 0.672 6 0 6.672 0 7.5 Z" fill="currentColor" fill-rule="nonzero"></path>
</svg>