<svg xmlns="http://www.w3.org/2000/svg" width="16" height="16" viewBox="0 0 16 16" fill="none">
  <path d="M 7 1.5 C 3.962 1.5 1.5 3.962 1.5 7 C 1.5 10.038 3.962 12.5 7 12.5 C 8.519 12.5 9.893 11.885 10.889 10.889 C 11.885 9.893 12.5 8.519 12.5 7 C 12.5 3.962 10.038 1.5 7 1.5 Z M 0 7 C 0 3.134 3.134 0 7 0 C 10.866 0 14 3.134 14 7 C 14 8.663 13.42 10.191 12.452 11.391 L 15.78 14.72 C 16.073 15.013 16.073 15.487 15.78 15.78 C 15.487 16.073 15.013 16.073 14.72 15.78 L 11.391 12.452 C 10.191 13.42 8.663 14 7 14 C 3.134 14 0 10.866 0 7 Z" fill="currentColor" fill-rule="evenodd"></path>
</svg>