<svg xmlns="http://www.w3.org/2000/svg" width="18.217" height="17.751" viewBox="0 0 18.217 17.751" fill="none">
  <path d="M 18.217 8.875 L 18.654 9.484 C 18.85 9.343 18.967 9.117 18.967 8.875 C 18.967 8.634 18.85 8.407 18.654 8.266 L 18.217 8.875 Z M 0 17.751 L -0.717 17.53 C -0.798 17.794 -0.728 18.08 -0.534 18.277 C -0.341 18.473 -0.055 18.548 0.209 18.471 L 0 17.751 Z M 0 0 L 0.209 -0.72 C -0.056 -0.797 -0.341 -0.723 -0.534 -0.526 C -0.728 -0.33 -0.798 -0.043 -0.717 0.221 L 0 0 Z M 10.231 9.625 C 10.645 9.625 10.981 9.29 10.981 8.875 C 10.981 8.461 10.645 8.125 10.231 8.125 L 10.231 9.625 Z M 18.217 8.875 L 17.779 8.266 C 12.389 12.141 6.322 15.133 -0.209 17.03 L 0 17.751 L 0.209 18.471 C 6.908 16.525 13.129 13.457 18.654 9.484 L 18.217 8.875 Z M 0 0 L -0.209 0.72 C 6.322 2.618 12.389 5.609 17.779 9.484 L 18.217 8.875 L 18.654 8.266 C 13.129 4.294 6.908 1.226 0.209 -0.72 L 0 0 Z M 0 0 L -0.717 0.221 L 2.014 9.096 L 2.731 8.875 L 3.448 8.655 L 0.717 -0.221 L 0 0 Z M 2.731 8.875 L 2.014 8.655 L -0.717 17.53 L 0 17.751 L 0.717 17.971 L 3.448 9.096 L 2.731 8.875 Z M 2.731 8.875 L 2.731 9.625 L 10.231 9.625 L 10.231 8.875 L 10.231 8.125 L 2.731 8.125 L 2.731 8.875 Z" fill="currentColor" fill-rule="nonzero"></path>
</svg>