<svg xmlns="http://www.w3.org/2000/svg" width="20" height="20" viewBox="0 0 20 20" fill="none">
  <path d="M 18 0 L 6 0 C 4.9 0 4 0.9 4 2 L 4 14 C 4 15.1 4.9 16 6 16 L 18 16 C 19.1 16 20 15.1 20 14 L 20 2 C 20 0.9 19.1 0 18 0 Z M 18 14 L 6 14 L 6 2 L 18 2 L 18 14 Z M 2 4 L 0 4 L 0 18 C 0 19.1 0.9 20 2 20 L 16 20 L 16 18 L 2 18 L 2 4 Z M 14 10 L 14 7 C 14 6.45 13.55 6 13 6 L 11 6 L 11 11 L 13 11 C 13.55 11 14 10.55 14 10 Z M 12 7 L 13 7 L 13 10 L 12 10 L 12 7 Z M 16 9 L 17 9 L 17 8 L 16 8 L 16 7 L 17 7 L 17 6 L 15 6 L 15 11 L 16 11 L 16 9 Z M 8 9 L 9 9 C 9.55 9 10 8.55 10 8 L 10 7 C 10 6.45 9.55 6 9 6 L 7 6 L 7 11 L 8 11 L 8 9 Z M 8 7 L 9 7 L 9 8 L 8 8 L 8 7 Z" fill="currentColor" fill-rule="nonzero"></path>
</svg>