<svg xmlns="http://www.w3.org/2000/svg" width="12" height="12" viewBox="0 0 12 12" fill="none">
  <path d="M 0 2 C 0 0.895 0.895 0 2 0 L 10 0 C 11.105 0 12 0.895 12 2 L 12 10 C 12 11.105 11.105 12 10 12 L 2 12 C 0.895 12 0 11.105 0 10 L 0 2 Z M 10.5 7.707 C 10.5 7.574 10.447 7.447 10.354 7.354 L 9.354 6.354 C 9.158 6.158 8.842 6.158 8.646 6.354 L 7.354 7.646 C 7.158 7.842 6.842 7.842 6.646 7.646 L 4.354 5.354 C 4.158 5.158 3.842 5.158 3.646 5.354 L 1.646 7.354 C 1.553 7.447 1.5 7.574 1.5 7.707 L 1.5 10 C 1.5 10.276 1.724 10.5 2 10.5 L 10 10.5 C 10.276 10.5 10.5 10.276 10.5 10 L 10.5 7.707 Z M 10 3 C 10 3.552 9.552 4 9 4 C 8.448 4 8 3.552 8 3 C 8 2.448 8.448 2 9 2 C 9.552 2 10 2.448 10 3 Z" fill="currentColor" fill-rule="evenodd"></path>
</svg>