<svg xmlns="http://www.w3.org/2000/svg" width="16" height="16" viewBox="0 0 16 16" fill="none">
  <path d="M 16 8 C 16 12.418 12.418 16 8 16 C 3.582 16 0 12.418 0 8 C 0 3.582 3.582 0 8 0 C 12.418 0 16 3.582 16 8 Z M 6.939 4.939 C 6.646 5.232 6.172 5.232 5.879 4.939 C 5.586 4.646 5.586 4.172 5.879 3.879 C 7.05 2.707 8.95 2.707 10.121 3.879 C 11.293 5.05 11.293 6.95 10.121 8.121 C 9.729 8.514 9.253 8.776 8.75 8.905 L 8.75 9.25 C 8.75 9.664 8.414 10 8 10 C 7.586 10 7.25 9.664 7.25 9.25 L 7.25 8.75 C 7.25 8.03 7.82 7.578 8.331 7.463 C 8.598 7.403 8.852 7.27 9.061 7.061 C 9.646 6.475 9.646 5.525 9.061 4.939 C 8.475 4.354 7.525 4.354 6.939 4.939 Z M 8 13 C 8.552 13 9 12.552 9 12 C 9 11.448 8.552 11 8 11 C 7.448 11 7 11.448 7 12 C 7 12.552 7.448 13 8 13 Z" fill="currentColor" fill-rule="evenodd"></path>
</svg>